<?xml version="1.0" encoding="utf-8"?>
<!-- Generator: Adobe Illustrator 25.2.0, SVG Export Plug-In . SVG Version: 6.00 Build 0)  -->
<svg version="1.1" id="Layer_1" xmlns="http://www.w3.org/2000/svg" xmlns:xlink="http://www.w3.org/1999/xlink" x="0px" y="0px"
	 viewBox="0 0 67 67" style="enable-background:new 0 0 67 67;" xml:space="preserve">
<style type="text/css">
	.st0{fill:#FFFFFF;}
</style>
<path class="st0" d="M50.4,47V35.8c0-6-3.2-8.8-7.5-8.8c-3.4,0-5,1.9-5.8,3.2v-2.8h-6.5c0.1,1.8,0,19.5,0,19.5H37V36.1
	c0-0.6,0-1.2,0.2-1.6c0.5-1.2,1.5-2.4,3.3-2.4c2.3,0,3.3,1.8,3.3,4.4V47L50.4,47L50.4,47z M23.7,24.8c2.3,0,3.7-1.5,3.7-3.4
	c0-1.9-1.4-3.4-3.6-3.4s-3.7,1.5-3.7,3.4C20.1,23.3,21.5,24.8,23.7,24.8L23.7,24.8z M34.3,62.2c-15.8,0-28.7-12.8-28.7-28.7
	c0-15.8,12.8-28.7,28.7-28.7s28.7,12.8,28.7,28.7C62.9,49.3,50.1,62.2,34.3,62.2z M27,47V27.5h-6.5V47H27z"/>
</svg>
