<?xml version="1.0" encoding="utf-8"?>
<!-- Generator: Adobe Illustrator 25.2.0, SVG Export Plug-In . SVG Version: 6.00 Build 0)  -->
<svg version="1.1" id="Layer_1" xmlns="http://www.w3.org/2000/svg" xmlns:xlink="http://www.w3.org/1999/xlink" x="0px" y="0px"
	 viewBox="0 0 56.7 56.7" style="enable-background:new 0 0 56.7 56.7;" xml:space="preserve">
<style type="text/css">
	.st0{fill:#FFFFFF;}
</style>
<path class="st0" d="M28.3,5.2c-13.6,0-24.6,11-24.6,24.6c0,13.6,11,24.6,24.6,24.6c13.6,0,24.6-11,24.6-24.6
	C53,16.2,41.9,5.2,28.3,5.2z M20.7,40.9c-1.8,0-3.2-1.5-3.2-3.2c0-1.8,1.4-3.2,3.2-3.2c1.8,0,3.2,1.4,3.2,3.2
	C23.9,39.4,22.5,40.9,20.7,40.9z M28.8,40.9c0-3.1-1.2-5.9-3.3-8.1c-2.1-2.2-5-3.3-8-3.3v-4.7c8.8,0,16,7.2,16,16.1H28.8z
	 M37.1,40.9c0-10.9-8.8-19.7-19.6-19.7v-4.7c13.4,0,24.3,10.9,24.3,24.4H37.1z"/>
</svg>
